{"title":"Gadaar(2015) 1 CD x264 SAP - PDVD RIP - MP3 2.0 -  Team Telly Ex","uid":11977546,"size":746235532,"categoryP":"video","categoryS":"movies","magnet":"?xt=urn:btih:d295f877b1f12a3abc8b3fb7a5a6a424d29ddc09&amp;dn=Gadaar%282015%29+1+CD+x264+SAP+-+PDVD+RIP+-+MP3+2.0+-++Team+Telly+Ex&amp;tr=udp%3A%2F%2Ftracker.openbittorrent.com%3A80&amp;tr=udp%3A%2F%2Fopen.demonii.com%3A1337&amp;tr=udp%3A%2F%2Ftracker.coppersurfer.tk%3A6969&amp;tr=udp%3A%2F%2Fexodus.desync.com%3A6969","seeders":8,"leechers":2,"uploader":"SS132203","files":3,"time":1433084511,"description":"Gadaar(2015) 1 CD x264 SAP - PDVD RIP - MP3 2.0 -  Team Telly Exclusive \n &lt;a href=&quot;\nhttp://imgsparrow.co/image/eZ&quot; rel=&quot;nofollow&quot; target=&quot;_NEW&quot;&gt;\nhttp://imgsparrow.co/image/eZ&lt;/a&gt;\n &lt;a href=&quot;\nhttp://imgsparrow.co/image/eQ&quot; rel=&quot;nofollow&quot; target=&quot;_NEW&quot;&gt;\nhttp://imgsparrow.co/image/eQ&lt;/a&gt;\n\nInfo : - \n\nAll Credit Goes To Team Telly\nSample Within Torrent\n\nFormat                      : Matroska\nFormat version              : Version 2\nFile size                   : 701 MiB\nDuration                    : 2h 3mn\nOverall bit rate            : 793 Kbps\nEncoded date                : UTC 2015-05-31 10:30:08\nWriting application         : mkvmerge v7.7.0 ('Six Voices') 32bit built on Feb 28 2015 23:23:00\nWriting library             : libebml v1.3.1 + libmatroska v1.4.2\nDURATION                    : 02:03:35.856000000\nNUMBER_OF_FRAMES            : 205996\nNUMBER_OF_BYTES             : 74158560\n_STATISTICS_WRITING_APP     : mkvmerge v7.7.0 ('Six Voices') 32bit built on Feb 28 2015 23:23:00\n_STATISTICS_WRITING_DATE_UT : 2015-05-31 10:30:08\n_STATISTICS_TAGS            : BPS DURATION NUMBER_OF_FRAMES NUMBER_OF_BYTES\n\nVideo\nID                          : 1\nFormat                      : AVC\nFormat/Info                 : Advanced Video Codec\nFormat profile              : &lt;a class=&quot;__cf_email__&quot; href=&quot;/cdn-cgi/l/email-protection&quot; data-cfemail=&quot;460b272f28060a756877&quot;&gt;[email&amp;#160;protected]&lt;/a&gt;&lt;script data-cfhash='f9e31' type=&quot;text/javascript&quot;&gt;\n/* &lt;![CDATA[ */!function(){try{var t=&quot;currentScript&quot;in document?document.currentScript:function(){for(var t=document.getElementsByTagName(&quot;script&quot;),e=t.length;e--;)if(t[e].getAttribute(&quot;data-cfhash&quot;))return t[e]}();if(t&amp;&amp;t.previousSibling){var e,r,n,i,c=t.previousSibling,a=c.getAttribute(&quot;data-cfemail&quot;);if(a){for(e=&quot;&quot;,r=parseInt(a.substr(0,2),16),n=2;a.length-n;n+=2)i=parseInt(a.substr(n,2),16)^r,e+=String.fromCharCode(i);e=document.createTextNode(e),c.parentNode.replaceChild(e,c)}t.parentNode.removeChild(t);}}catch(u){}}()/* ]]&gt; */&lt;/script&gt;\nFormat settings, CABAC      : Yes\nFormat settings, ReFrames   : 3 frames\nCodec ID                    : V_MPEG4/ISO/AVC\nDuration                    : 2h 3mn\nBit rate                    : 712 Kbps\nWidth                       : 656 pixels\nHeight                      : 288 pixels\nDisplay aspect ratio        : 2.25:1\nFrame rate mode             : Constant\nFrame rate                  : 23.976 fps\nColor space                 : YUV\nChroma subsampling          : 4:2:0\nBit depth                   : 8 bits\nScan type                   : Progressive\nBits/(Pixel*Frame)          : 0.157\nStream size                 : 616 MiB (88%)\nWriting library             : x264 core 146 r2538 121396c\nEncoding settings           : cabac=1 / ref=3 / deblock=1:-1:-1 / analyse=0x1:0x111 / me=hex / subme=6 / psy=1 / psy_rd=1.00:0.15 / mixed_ref=1 / me_range=16 / chroma_me=1 / trellis=2 / 8x8dct=0 / cqm=0 / deadzone=21,11 / fast_pskip=1 / chroma_qp_offset=-3 / threads=24 / lookahead_threads=2 / sliced_threads=0 / nr=0 / decimate=1 / interlaced=0 / bluray_compat=0 / constrained_intra=0 / bframes=3 / b_pyramid=0 / b_adapt=2 / b_bias=0 / direct=2 / weightb=1 / open_gop=0 / weightp=2 / keyint=230 / keyint_min=23 / scenecut=48 / intra_refresh=0 / rc_lookahead=48 / rc=abr / mbtree=1 / bitrate=712 / ratetol=1.0 / qcomp=0.60 / qpmin=0 / qpmax=69 / qpstep=4 / vbv_maxrate=14000 / vbv_bufsize=14000 / nal_hrd=none / filler=0 / ip_ratio=1.40 / aq=1:1.00\nDefault                     : Yes\nForced                      : No\nColor range                 : Limited\nColor primaries             : BT.601 NTSC\nTransfer characteristics    : BT.601\nMatrix coefficients         : BT.601\n\nAudio\nID                          : 2\nFormat                      : MPEG Audio\nFormat version              : Version 1\nFormat profile              : Layer 3\nMode                        : Joint stereo\nMode extension              : MS Stereo\nCodec ID                    : A_MPEG/L3\nCodec ID/Hint               : MP3\nDuration                    : 2h 3mn\nBit rate mode               : Constant\nBit rate                    : 80.0 Kbps\nChannel(s)                  : 2 channels\nSampling rate               : 32.0 KHz\nCompression mode            : Lossy\nStream size                 : 70.7 MiB (10%)\nWriting library             : LAME3.99r\nEncoding settings           : -m j -V 4 -q 2 -lowpass 13.5 -b 80\nDefault                     : Yes\nForced                      : No\n\nScreens : - \n &lt;a href=&quot;\nhttp://imgsparrow.co/image/ea&quot; rel=&quot;nofollow&quot; target=&quot;_NEW&quot;&gt;\nhttp://imgsparrow.co/image/ea&lt;/a&gt; &lt;a href=&quot;\nhttp://imgsparrow.co/image/ef&quot; rel=&quot;nofollow&quot; target=&quot;_NEW&quot;&gt;\nhttp://imgsparrow.co/image/ef&lt;/a&gt; &lt;a href=&quot;\nhttp://imgsparrow.co/image/eI&quot; rel=&quot;nofollow&quot; target=&quot;_NEW&quot;&gt;\nhttp://imgsparrow.co/image/eI&lt;/a&gt; &lt;a href=&quot;\nhttp://imgsparrow.co/image/eP&quot; rel=&quot;nofollow&quot; target=&quot;_NEW&quot;&gt;\nhttp://imgsparrow.co/image/eP&lt;/a&gt; &lt;a href=&quot;\nhttp://imgsparrow.co/image/eW&quot; rel=&quot;nofollow&quot; target=&quot;_NEW&quot;&gt;\nhttp://imgsparrow.co/image/eW&lt;/a&gt; &lt;a href=&quot;\nhttp://imgsparrow.co/image/eX&quot; rel=&quot;nofollow&quot; target=&quot;_NEW&quot;&gt;\nhttp://imgsparrow.co/image/eX&lt;/a&gt; &lt;a href=&quot;\nhttp://imgsparrow.co/image/eY&quot; rel=&quot;nofollow&quot; target=&quot;_NEW&quot;&gt;\nhttp://imgsparrow.co/image/eY&lt;/a&gt; &lt;a href=&quot;\nhttp://imgsparrow.co/image/ec&quot; rel=&quot;nofollow&quot; target=&quot;_NEW&quot;&gt;\nhttp://imgsparrow.co/image/ec&lt;/a&gt; &lt;a href=&quot;\nhttp://imgsparrow.co/image/ed&quot; rel=&quot;nofollow&quot; target=&quot;_NEW&quot;&gt;\nhttp://imgsparrow.co/image/ed&lt;/a&gt; &lt;a href=&quot;\nhttp://imgsparrow.co/image/eo&quot; rel=&quot;nofollow&quot; target=&quot;_NEW&quot;&gt;\nhttp://imgsparrow.co/image/eo&lt;/a&gt;\n &lt;a href=&quot;\nhttp://imgsparrow.co/image/N2&quot; rel=&quot;nofollow&quot; target=&quot;_NEW&quot;&gt;\nhttp://imgsparrow.co/image/N2&lt;/a&gt;","torrent":{"xt":"urn:btih:d295f877b1f12a3abc8b3fb7a5a6a424d29ddc09","amp;dn":"Gadaar%282015%29+1+CD+x264+SAP+-+PDVD+RIP+-+MP3+2.0+-++Team+Telly+Ex","amp;tr":["udp%3A%2F%2Ftracker.openbittorrent.com%3A80","udp%3A%2F%2Fopen.demonii.com%3A1337","udp%3A%2F%2Ftracker.coppersurfer.tk%3A6969","udp%3A%2F%2Fexodus.desync.com%3A6969"],"infoHash":"d295f877b1f12a3abc8b3fb7a5a6a424d29ddc09","infoHashBuffer":{"type":"Buffer","data":[210,149,248,119,177,241,42,58,188,139,63,183,165,166,164,36,210,157,220,9]},"announce":[],"urlList":[]}}